<?xml version="1.0" encoding="UTF-8"?>
<!DOCTYPE svg PUBLIC "-//W3C//DTD SVG 1.1//EN" "http://www.w3.org/Graphics/SVG/1.1/DTD/svg11.dtd">
<svg xmlns="http://www.w3.org/2000/svg" version="1.1" width="256px" height="256px" style="shape-rendering:geometricPrecision; text-rendering:geometricPrecision; image-rendering:optimizeQuality; fill-rule:evenodd; clip-rule:evenodd" xmlns:xlink="http://www.w3.org/1999/xlink">
<g><path style="opacity:1" fill="#fefefe" d="M -0.5,-0.5 C 84.8333,-0.5 170.167,-0.5 255.5,-0.5C 255.5,84.8333 255.5,170.167 255.5,255.5C 170.167,255.5 84.8333,255.5 -0.5,255.5C -0.5,170.167 -0.5,84.8333 -0.5,-0.5 Z"/></g>
<g><path style="opacity:1" fill="#a57655" d="M 131.5,0.5 C 133.199,0.339822 134.866,0.506489 136.5,1C 164.591,14.9302 180.925,37.4302 185.5,68.5C 213.388,75.9292 224.888,93.9292 220,122.5C 218.955,126.344 217.455,130.01 215.5,133.5C 244.666,150.163 252.833,174.163 240,205.5C 231.391,221.442 218.891,233.276 202.5,241C 184.246,248.647 165.246,252.98 145.5,254C 113.359,257.441 82.3588,253.108 52.5,241C 21.4843,226.663 7.31763,202.496 10,168.5C 14.9629,151.701 25.4629,139.701 41.5,132.5C 31.6618,108.69 35.9951,87.8566 54.5,70C 57.1667,68 59.8333,66 62.5,64C 80.5,54.6667 98.5,45.3333 116.5,36C 124.08,32.1346 130.58,26.9679 136,20.5C 138.796,13.8727 137.462,8.20604 132,3.5C 131.517,2.55198 131.351,1.55198 131.5,0.5 Z"/></g>
<g><path style="opacity:1" fill="#2b3b46" d="M 167.5,109.5 C 174.823,108.746 179.99,111.746 183,118.5C 183.667,126.5 183.667,134.5 183,142.5C 178.898,151.746 172.398,153.913 163.5,149C 161.959,147.421 160.792,145.587 160,143.5C 159.333,134.5 159.333,125.5 160,116.5C 161.742,113.254 164.242,110.921 167.5,109.5 Z"/></g>
<g><path style="opacity:1" fill="#2a3a46" d="M 84.5,109.5 C 91.2654,108.469 96.432,110.802 100,116.5C 100.667,125.833 100.667,135.167 100,144.5C 96.5514,150.544 91.3848,152.71 84.5,151C 81.6667,149.5 79.5,147.333 78,144.5C 77.3333,135.167 77.3333,125.833 78,116.5C 79.6941,113.642 81.8607,111.309 84.5,109.5 Z"/></g>
<g><path style="opacity:1" fill="#2d3b47" d="M 160.5,212.5 C 156.455,209.423 151.789,207.589 146.5,207C 133.125,206.119 119.791,206.452 106.5,208C 103.644,209.259 100.977,210.759 98.5,212.5C 85.8851,206.386 76.8851,196.886 71.5,184C 71.9279,179.461 74.2612,176.461 78.5,175C 112.5,174.333 146.5,174.333 180.5,175C 186.161,176.82 188.328,180.653 187,186.5C 180.93,198.07 172.097,206.737 160.5,212.5 Z"/></g>
<g><path style="opacity:1" fill="#fd473d" d="M 160.5,212.5 C 139.823,223.108 119.157,223.108 98.5,212.5C 100.977,210.759 103.644,209.259 106.5,208C 119.791,206.452 133.125,206.119 146.5,207C 151.789,207.589 156.455,209.423 160.5,212.5 Z"/></g>
</svg>
